<?xml version="1.0" encoding="UTF-8" standalone="no"?>
<!-- Created with Inkscape (http://www.inkscape.org/) -->

<svg
   width="172.68222mm"
   height="173.46585mm"
   viewBox="0 0 172.68222 173.46585"
   version="1.1"
   id="svg1"
   xml:space="preserve"
   xmlns:inkscape="http://www.inkscape.org/namespaces/inkscape"
   xmlns:sodipodi="http://sodipodi.sourceforge.net/DTD/sodipodi-0.dtd"
   xmlns="http://www.w3.org/2000/svg"
   xmlns:svg="http://www.w3.org/2000/svg"><sodipodi:namedview
     id="namedview1"
     pagecolor="#ffffff"
     bordercolor="#000000"
     borderopacity="0.25"
     inkscape:showpageshadow="2"
     inkscape:pageopacity="0.0"
     inkscape:pagecheckerboard="0"
     inkscape:deskcolor="#d1d1d1"
     inkscape:document-units="mm"
     inkscape:zoom="0.23117635"
     inkscape:cx="1226.3365"
     inkscape:cy="534.2242"
     inkscape:window-width="1366"
     inkscape:window-height="715"
     inkscape:window-x="-8"
     inkscape:window-y="-8"
     inkscape:window-maximized="1"
     inkscape:current-layer="layer2" /><defs
     id="defs1" /><g
     inkscape:groupmode="layer"
     id="layer2"
     inkscape:label="Vector Layer"
     transform="translate(-359.47492,16.530883)"><path
       style="vector-effect:non-scaling-stroke;fill:#009999;fill-opacity:1;stroke:#2d5183;stroke-width:0.264583;stroke-miterlimit:5;-inkscape-stroke:hairline;paint-order:fill markers stroke"
       d="m 359.62921,108.84978 -0.0235,17.63677 44.98712,28.09679 -0.20232,-59.02758 c 0,0 -1.21394,-11.63354 -12.544,-12.544 -9.73265,-0.78209 -17.80437,-0.40464 -17.80437,-0.40464 l 0.40464,-20.839211 14.76954,-9.509157 0.60697,17.602058 14.56722,-9.711482 v -35.40643 l -44.91559,28.527467 0.14306,31.695205 c 0,0 0.15836,11.83675 12.60325,13.01806 11.28515,1.07122 16.99509,0 16.99509,0 l 0.60697,29.94372 z"
       id="path1"
       sodipodi:nodetypes="ccccsccccccccsccc"
       inkscape:export-filename="logo.svg"
       inkscape:export-xdpi="96"
       inkscape:export-ydpi="96" /><path
       style="vector-effect:non-scaling-stroke;fill:#009999;fill-opacity:1;stroke:#2d5183;stroke-width:0.264583;stroke-miterlimit:5;-inkscape-stroke:hairline;paint-order:fill markers stroke"
       d="m 419.54697,156.93496 14.78727,-9.18001 -0.45523,-99.542646 10.52076,21.041526 12.18993,-25.998429 0.0235,90.693589 14.64997,-9.00844 -0.28508,-141.471434 -13.48302,8.2349079 L 444.45035,36.679922 431.50172,7.5454899 419.16005,15.436066 Z"
       id="path2"
       sodipodi:nodetypes="ccccccccccccc" /><path
       style="vector-effect:non-scaling-stroke;fill:#009999;fill-opacity:1;stroke:#2d5183;stroke-width:0.264583;stroke-miterlimit:5;-inkscape-stroke:hairline;paint-order:fill markers stroke"
       d="m 485.92646,13.008196 0.40464,102.172844 45.82604,-28.4516 -0.10116,-17.4756 -31.33469,20.15637 -0.22761,-85.3042031 z"
       id="path3"
       sodipodi:nodetypes="ccccccc" /></g></svg>
